# xmcd
#
# Track frame offsets:
#	150
#	22400
#	40782
#	62692
#	82717
#	101630
#	127177
#	145120
#	165285
#	190935
#
# Disc length: 2876 seconds
#
# Revision: 2672894830
# Processed by: cddbd v1.5.2PL0 Copyright (c) Steve Scherf et al.
# Submitted via: EZCDAudioConverter 8.0.2.1
#
DISCID=800b3a0a
DTITLE=Duy Khánh, Chế Linh, Tuấn Vũ - Biệt Kinh Kỳ
DYEAR=1989
DGENRE=World Pop
TTITLE0=Duy Khánh - Trường cũ tình xưa
TTITLE1=Tuấn Vũ - Tình đời tay trắng
TTITLE2=Chế Linh - Buồn trong kỷ niệm
TTITLE3=Duy Khánh - Biệt Kinh Kỳ
TTITLE4=Tuấn Vũ - Hàn Mặc Tử
TTITLE5=Chế Linh - Vọng gác đêm sương
TTITLE6=Tuấn Vũ - Nhạt nắng
TTITLE7=Duy Khánh - Nhớ thành đô
TTITLE8=Chế Linh - Thói đời
TTITLE9=Tuấn Vũ - Quán nửa khuya
EXTD=
EXTT0=
EXTT1=
EXTT2=
EXTT3=
EXTT4=
EXTT5=
EXTT6=
EXTT7=
EXTT8=
EXTT9=
PLAYORDER=
